<svg width="212" height="45" viewBox="0 0 212 45" fill="none" xmlns="http://www.w3.org/2000/svg">
<path fill-rule="evenodd" clip-rule="evenodd" d="M7.14557 14.0177C8.20572 13.7699 9.35886 13.5959 10.5815 13.4983C10.0429 12.375 9.60866 11.274 9.28871 10.2177C8.78867 8.56688 8.53508 6.91776 8.67722 5.4124C8.82064 3.89357 9.39056 2.36396 10.6859 1.28049C11.9812 0.197029 13.5914 -0.0968412 15.1168 0.026109C16.6287 0.147969 18.2139 0.683289 19.758 1.46083C22.8539 3.01982 26.1895 5.75703 29.1296 9.24979C31.502 12.0682 33.3437 15.054 34.4933 17.841C35.071 16.8396 35.6588 15.9266 36.2453 15.1204C37.1819 13.8327 38.1926 12.7091 39.2407 11.9511C40.2122 11.2485 41.7411 10.4972 43.3961 11.0977C45.0511 11.6981 45.7379 13.2533 46.029 14.414C46.3432 15.6662 46.3928 17.1746 46.28 18.7611C46.0521 21.9659 45.1189 26.0303 43.5825 30.2381C42.0461 34.446 40.1401 38.1574 38.2482 40.7584C37.3115 42.0461 36.3008 43.1697 35.2527 43.9277C34.2813 44.6303 32.7523 45.3816 31.0973 44.7811C29.4423 44.1807 28.7556 42.6255 28.4644 41.4648C28.1503 40.2126 28.1006 38.7042 28.2134 37.1177C28.3342 35.4196 28.653 33.4801 29.1546 31.4059C28.915 31.4724 28.6722 31.5343 28.4268 31.5917C25.0499 32.3812 20.7296 32.4216 16.2251 31.6299C11.7206 30.8381 7.67476 29.3272 4.77239 27.434C3.32484 26.4898 2.06716 25.389 1.20534 24.1448C0.335816 22.8894 -0.213944 21.3525 0.0796843 19.6925C0.373312 18.0325 1.41725 16.7757 2.66507 15.8925C3.90183 15.0171 5.46136 14.4115 7.14557 14.0177ZM19.3472 13.9796C18.1052 13.7613 16.8772 13.6062 15.6791 13.5127C14.714 11.8768 14.0123 10.311 13.5917 8.92254C13.1965 7.61757 13.0821 6.57646 13.1524 5.8323C13.2213 5.1016 13.4442 4.82238 13.5752 4.71287C13.7061 4.60335 14.0207 4.43303 14.7545 4.49218C15.5019 4.55242 16.5106 4.8455 17.7312 5.46014C20.1646 6.68553 23.0414 8.98787 25.6863 12.1299C27.1338 13.8495 28.3208 15.5936 29.228 17.2469C26.5121 15.7905 23.0878 14.637 19.3472 13.9796ZM30.6681 24.0104C31.0729 24.5949 31.0947 24.9478 31.0688 25.122C31.0119 25.2116 30.9559 25.2694 30.9108 25.3071C30.7799 25.4166 30.4653 25.587 29.7315 25.5278C28.9841 25.4676 27.9754 25.1745 26.7548 24.5599C24.7642 23.5575 22.477 21.8345 20.2627 19.5207C19.9656 19.2103 20.2452 18.7269 20.6635 18.8274C23.8032 19.5823 26.4625 20.7008 28.3388 21.9247C29.4831 22.6711 30.2421 23.3954 30.6681 24.0104ZM15.3564 20.7702C17.8232 23.7007 20.5684 26.0993 23.2169 27.7164C21.3283 27.7595 19.2213 27.6068 17.0056 27.2173C12.9535 26.5051 9.51485 25.1728 7.23354 23.6847C6.08925 22.9383 5.33029 22.2141 4.90425 21.599C4.48593 20.9951 4.47663 20.6383 4.50631 20.4706C4.53599 20.3028 4.66712 19.9707 5.26744 19.5458C5.87882 19.1131 6.8405 18.6913 8.17188 18.38C9.57543 18.0519 11.2681 17.875 13.1509 17.8865C13.8221 18.8574 14.5593 19.8232 15.3564 20.7702ZM35.1348 27.1732C36.5701 23.2423 38.3 19.9285 39.8843 17.7506C40.3548 17.1036 40.7861 16.5938 41.1647 16.2088C41.4018 15.9677 41.7835 16.1062 41.8097 16.4428C41.8514 16.9803 41.853 17.6472 41.7963 18.4443C41.6055 21.1278 40.7939 24.7747 39.3586 28.7056C37.9234 32.6365 36.1934 35.9503 34.6092 38.1282C34.1386 38.7751 33.7073 39.285 33.3288 39.67C33.0917 39.9111 32.7099 39.7726 32.6838 39.4359C32.642 38.8985 32.6404 38.2316 32.6971 37.4345C32.8879 34.751 33.6995 31.1041 35.1348 27.1732Z" fill="#3F33C5"/>
<path fill-rule="evenodd" clip-rule="evenodd" d="M55.3593 37.1894H49.7928V7.33751H60.0628C67.0533 7.33751 71.4547 11.0798 71.4547 17.1017C71.4547 23.4248 66.4923 27.6402 59.1135 27.6402H55.3593V37.1894ZM55.3593 22.7796H60.106C63.6443 22.7796 65.6724 20.973 65.6724 17.79C65.6724 14.4349 63.2128 12.1981 59.545 12.1981H55.3593V22.7796Z" fill="#3F33C5"/>
<path d="M78.7465 37.1894H73.2663V16.1303H77.762L77.7108 20.0697C79.2643 17.5749 81.8102 16.1124 84.5719 16.1124C85.6938 16.1124 86.7726 16.3275 87.6787 16.6716L86.3842 21.7043C85.6075 21.4462 84.615 21.2741 83.7088 21.2741C81.7815 21.2741 80.0026 22.1369 78.7465 23.6571V37.1894Z" fill="#3F33C5"/>
<path fill-rule="evenodd" clip-rule="evenodd" d="M97.6786 37.6195C104.281 37.6195 108.768 33.1461 108.768 26.4358C108.768 20.0267 104.669 15.8543 98.3258 15.8543C91.6806 15.8543 87.2791 20.3278 87.2791 27.081C87.2791 33.4472 91.3353 37.6195 97.6786 37.6195ZM98.1532 33.017C94.9169 33.017 92.8456 30.5222 92.8456 26.6079C92.8456 22.8657 94.7443 20.4999 97.8512 20.4999C101.088 20.4999 103.159 23.0377 103.159 26.952C103.159 30.6942 101.26 33.017 98.1532 33.017Z" fill="#3F33C5"/>
<path d="M130.629 37.1894H125.106V25.0594C125.106 22.2204 123.725 20.7149 121.05 20.7149C119.457 20.7149 118.009 21.265 116.778 22.2701V37.1894H111.298V16.1303H116.778V19.7663C118.72 17.4005 119.928 15.9404 122.949 15.9404C127.695 15.9404 130.629 19.1234 130.629 24.3281V37.1894Z" fill="#3F33C5"/>
<path fill-rule="evenodd" clip-rule="evenodd" d="M143.169 37.6195C149.771 37.6195 154.259 33.1461 154.259 26.4358C154.259 20.0267 150.159 15.8543 143.816 15.8543C137.171 15.8543 132.769 20.3278 132.769 27.081C132.769 33.4472 136.826 37.6195 143.169 37.6195ZM143.643 33.017C140.407 33.017 138.336 30.5222 138.336 26.6079C138.336 22.8657 140.234 20.4999 143.341 20.4999C146.578 20.4999 148.649 23.0377 148.649 26.952C148.649 30.6942 146.75 33.017 143.643 33.017Z" fill="#3F33C5"/>
<path d="M169.881 36.7593C168.5 37.2324 166.99 37.4905 165.522 37.4905C160.862 37.4905 158.057 34.8666 158.057 30.6082V20.6719H154.267V16.2845H158.057V10.2195H163.494V16.2845H168.802V20.6719H163.494V30.3071C163.494 32.0707 164.746 33.2321 166.731 33.2321C167.378 33.2321 168.155 33.103 168.759 32.845L169.881 36.7593Z" fill="#3F33C5"/>
<path fill-rule="evenodd" clip-rule="evenodd" d="M181.592 37.6195C184.094 37.6195 186.727 37.1464 189.014 36.2001L187.805 32.3718C186.123 33.06 184.267 33.4472 182.498 33.4472C178.708 33.4472 176.397 31.7014 175.743 28.2854H189.359C189.488 27.4252 189.575 26.1347 189.575 25.1454C189.575 19.4675 186.079 15.8543 180.513 15.8543C174.256 15.8543 170.07 20.3278 170.07 26.823C170.07 33.5332 174.429 37.6195 181.592 37.6195ZM184.397 24.9303H175.603C175.906 21.7702 177.496 20.1127 180.125 20.1127C182.843 20.1127 184.397 21.8333 184.397 24.9303Z" fill="#3F33C5"/>
<path d="M203.999 36.3685H199.547V28.2639H191.503V23.9553H199.547V15.9368H203.999V23.9553H212V28.2639H203.999V36.3685Z" fill="#3F33C5"/>
</svg>
